<svg xmlns="http://www.w3.org/2000/svg" xml:space="preserve" width="149.76781" height="96.11429" viewBox="0 0 39.62606 25.43024"><g transform="translate(26.81429 -106.44717)"><path d="M-26.81429 106.44717h39.62606v25.43024h-39.62606z" style="fill:#4b364e;fill-opacity:1;stroke:none;stroke-width:.0104383;stroke-dasharray:none;stroke-opacity:1"/><g style="font-size:10.798px;font-family:Ubuntu;-inkscape-font-specification:Ubuntu;fill:#ba993e;stroke-width:.0147798"><path d="M-2.08775 116.89696h1.99763c2.10561 0 3.70372-.90703 3.70372-3.61733 0-2.6995-1.5981-3.59573-3.70372-3.59573h-1.99763Zm1.93284-1.13379h-.64788v-4.95628h.64788c1.26337 0 2.44035.34553 2.44035 2.47274s-1.17698 2.48354-2.44035 2.48354zm4.51357 1.13379h1.25256l.44272-1.44693h2.6887l.44272 1.44693h1.30656l-2.33237-7.21306H6.69103Zm2.00842-2.56992 1.00422-3.21781h.0432l1.0042 3.21781zm-8.49802 10.69087h1.19858v-5.48539h.04319l2.60232 5.48539h1.6197v-7.21307H2.13427v5.48539h-.0432l-2.60231-5.48539h-1.6197Zm9.57782.12957c1.51172 0 2.82908-.89623 2.82908-2.31077 0-1.27416-.96102-1.76007-2.36476-2.06242l-.82065-.19436c-.5723-.12958-.96102-.39953-.96102-.85304 0-.60469.5723-.92863 1.27416-.92863.5831 0 1.15539.29155 1.39295.82065l1.26336-.47511c-.44272-1.03661-1.53332-1.46853-2.56992-1.46853-1.49013 0-2.7535.84224-2.7535 2.10561 0 1.17698.84225 1.76007 2.06242 2.01922l.73427.16197c.97182.20517 1.34975.49671 1.34975 1.01502 0 .70187-.69107 1.0474-1.40374 1.0474-.74506 0-1.43614-.39952-1.6305-1.11219l-1.28496.46431c.41032 1.15539 1.5657 1.77087 2.88306 1.77087z" aria-label="DA NS" style="font-weight:600;font-family:&quot;Atkinson Hyperlegible Mono&quot;;-inkscape-font-specification:&quot;Atkinson Hyperlegible Mono Semi-Bold&quot;" transform="scale(.98534273 1.0148753)"/></g><rect width="19.84375" height="19.84375" x="-24.16641" y="109.24041" rx=".52917" ry=".52917" style="fill:#ba993e;fill-opacity:1;stroke:none;stroke-width:.0187952;stroke-dasharray:none;stroke-opacity:1"/><path d="m-8.75035 113.64078-3.58121 4.06123c-.25892.29362-.67943.4024-1.05.2629-.37056-.13949-.61562-.49403-.61588-.88999l-.0016-2.24542c-.00034-.45975-.28072-.87286-.7082-1.04203-.4275-.16917-.84623-.15956-1.22954.27522-1.2673 1.43746-3.80194 4.31232-3.80194 4.31232v2.35119l3.89003-4.41136c.31446-.3566.6793-.4024 1.04987-.26291.37057.1395.61589.49403.61589.88999 0 .74847.0016 1.49696.0016 2.24543 0 .45975.28084.87286.70833 1.04203.42748.16917.92902.0656 1.22953-.27522l3.49312-3.96219zm0 3.95759-3.86962 4.38822c-.27828.31557-.6793.4024-1.04987.2629-.37057-.1395-.61588-.49391-.61588-.88986 0-.74847-.0016-1.49697-.0016-2.24544 0-.45974-.28085-.87286-.70833-1.04202-.4275-.16918-.88128-.11993-1.22954.27509l-3.51353 3.98534v2.35119l3.60175-4.08438c.3002-.34044.6793-.4024 1.04987-.2629.37056.13949.61562.49404.61588.88999l.0016 2.24543c.00034.45974.28072.87286.7082 1.04203.4275.16916.906.0919 1.22954-.2751l3.78153-4.2893z" style="color:#000;display:inline;overflow:visible;fill:#4b364e;fill-opacity:1;stroke:none;stroke-width:.00311999;stroke-miterlimit:10;stroke-dasharray:none;stroke-opacity:1;paint-order:markers fill stroke;stop-color:#000"/></g></svg>